<svg xmlns="http://www.w3.org/2000/svg" viewBox="0 0 512 512">
  <defs>
    <linearGradient id="bg" x1="0%" x2="100%" y1="0%" y2="100%">
      <stop offset="0%" stop-color="#183129" />
      <stop offset="100%" stop-color="#09110f" />
    </linearGradient>
    <linearGradient id="glass" x1="0%" x2="100%" y1="0%" y2="100%">
      <stop offset="0%" stop-color="#ffe1a1" />
      <stop offset="100%" stop-color="#d4a64f" />
    </linearGradient>
  </defs>
  <rect width="512" height="512" rx="120" fill="url(#bg)" />
  <circle cx="385" cy="134" r="44" fill="#76d3ac" opacity="0.18" />
  <path
    d="M145 129h222c11 0 18 12 12 21L297 257v93h58c13 0 24 11 24 24s-11 24-24 24H157c-13 0-24-11-24-24s11-24 24-24h58v-93L133 150c-6-9 1-21 12-21Z"
    fill="url(#glass)"
  />
  <path
    d="M189 173h133l-51 66v125h-31V239l-51-66Z"
    fill="#13231d"
    opacity="0.62"
  />
  <rect x="188" y="184" width="136" height="52" rx="18" fill="#76d3ac" opacity="0.85" />
  <circle cx="235" cy="210" r="10" fill="#09110f" />
  <circle cx="277" cy="210" r="10" fill="#09110f" />
</svg>
